<?xml version="1.0" encoding="utf-8"?>
<!-- Generator: Adobe Illustrator 21.1.0, SVG Export Plug-In . SVG Version: 6.00 Build 0)  -->
<svg version="1.1" id="Layer_1" xmlns="http://www.w3.org/2000/svg" xmlns:xlink="http://www.w3.org/1999/xlink" x="0px" y="0px"
	 viewBox="0 0 68.279 21.089" style="enable-background:new 0 0 68.279 21.089;" xml:space="preserve">
<style type="text/css">
	.st0{fill:#FFFFFF;}
</style>
<g>
	<path class="st0" d="M0,0.75C0,0.27,0.24,0,0.721,0h0.63c0.45,0,0.72,0.27,0.72,0.75v18.479H11.1c0.48,0,0.75,0.27,0.75,0.75v0.36
		c0,0.48-0.27,0.75-0.75,0.75H0.721c-0.48,0-0.721-0.27-0.721-0.75V0.75z"/>
	<path class="st0" d="M20.97,0.75C20.97,0.27,21.21,0,21.69,0h0.63c0.45,0,0.72,0.27,0.72,0.75v19.589c0,0.48-0.27,0.75-0.72,0.75
		h-0.63c-0.48,0-0.721-0.27-0.721-0.75V0.75z"/>
	<path class="st0" d="M34.92,0.75c0-0.48,0.24-0.75,0.721-0.75h9.629c0.48,0,0.75,0.27,0.75,0.75v0.36c0,0.48-0.27,0.75-0.75,0.75
		H36.99V9.78h7.02c0.48,0,0.72,0.24,0.72,0.72v0.39c0,0.48-0.239,0.75-0.72,0.75h-7.02v8.7c0,0.48-0.27,0.75-0.72,0.75h-0.63
		c-0.48,0-0.721-0.27-0.721-0.75V0.75z"/>
	<path class="st0" d="M55.859,0.75C55.859,0.27,56.1,0,56.58,0h10.409c0.48,0,0.75,0.27,0.75,0.75v0.36c0,0.48-0.27,0.75-0.75,0.75
		h-9.06v7.68h7.26c0.479,0,0.75,0.24,0.75,0.72v0.39c0,0.48-0.271,0.75-0.75,0.75h-7.26v7.83h9.6c0.48,0,0.75,0.27,0.75,0.75v0.36
		c0,0.48-0.27,0.75-0.75,0.75H56.58c-0.48,0-0.721-0.27-0.721-0.75V0.75z"/>
</g>
</svg>
